<?xml version="1.0" standalone="no"?>
<!DOCTYPE svg PUBLIC "-//W3C//DTD SVG 1.1//EN" "http://www.w3.org/Graphics/SVG/1.1/DTD/svg11.dtd" >
<svg xmlns="http://www.w3.org/2000/svg" xmlns:svg="http://www.w3.org/2000/svg" xmlns:xlink="http://www.w3.org/1999/xlink" viewBox="0 0 1024 1024"><path d="M315.27 968.26L283.57 938.8Q252.09 947.78 278.19 925.61L270.52 895.21Q314.52 864.2 337.47 838.59Q366.4 823.27 366.2 806.45Q395.9 772.28 385.99 729.64L425.71 710.83V718.7Q387.34 745.37 333.35 707.89Q328.7 674.25 318.16 630.38V535.58L319.05 563V454.43L303.11 426.81V307.86L301.15 140.96Q318.84 109.86 339.48 109.66Q343.1 103.55 375.64 95.09Q386.51 119.57 431.42 115.37L449.35 114.18H638.84L644 95.71L666.05 146.16V243.05L651 373.02V464.44L641.96 500.38V667.36L652.29 666.41Q673.64 702.9 646.52 716.36Q636.61 753.07 622.63 733.86L571.47 721.97L568.47 713.59H518.26Q498.71 725.76 498.67 717.13Q470.93 725.84 439.57 740.4V710.51Q427.66 727.36 463.76 726.11Q483.29 761.01 451.12 798.06Q469.98 815.02 434.53 864.17L396.74 901.36H388.98L389.36 896.1H406.43V903.7L407.42 891.54L396.55 925.77L377.29 927.62L377.48 942.8V928.19Q356.09 973.8 310.8 971.85ZM914.12 928.05Q893.13 943.07 841.45 896.12Q800.79 917.8 764.42 909.75Q769.74 863.94 776.3 857.89L788.16 828.26Q811.42 834.24 833.51 833.16L858.42 823.72V835.82L871.43 840.5V738.1L893.27 680.51V517.65Q880.76 442.02 883.25 353.53Q868.54 263.21 869.04 194.2L864.03 185.41V90.95Q861.41 88.77 881.73 85.6Q884.32 66.03 929.68 48.73L944.89 61.04L934.39 83.22V198.2L926.41 239.46Q943.19 330.18 943.58 363.08Q940.05 433.71 945.34 497.97V658.31L947.32 823.75L951.26 894.26L959.47 932.03Q916.13 928.02 913.6 951.6ZM683.71 934.91Q644.37 932.98 619.03 896.59Q599.14 885.96 598.18 857.9Q538.61 848.28 536.99 825.5Q507.83 813.46 502.06 785.74L538.07 763.38Q548.9 721.4 573.12 749.33L610.53 760.47V757.49H622.35L607.75 772.43H594.06L647.06 804.73L634.89 808.93V813.14H643.89V837.88L665.71 808.3V818.84Q709.69 830.08 731.47 856.9Q745.9 851.7 750.28 895.66L710.18 912.29Q729.9 907.69 708.26 940.99ZM187.87 906.18Q134.68 898.27 159.02 910.14L147.53 912.75L107.76 907.41Q117.67 874.09 75.77 839.89Q52.17 820.18 73.49 829.5L91.23 797.34Q90.86 803.61 123.65 777.75L147.77 814.82Q167.62 742.73 163.03 708.42Q166.67 658.58 210.75 607.96Q235.59 623.19 237.16 633.98L274.49 612.21Q271.89 622.01 288.39 680.31Q231.64 701.23 244.58 771.82Q209.23 849.53 195.73 921.3Q173.32 922.07 187.91 912.75ZM563.07 649.24V486.66H543.1L387.94 544.87V528.66L417.01 533.69V617.63L410.3 647.21H402.96Q455.78 652.02 496.81 655.18Q522.97 645.97 563.86 649.63ZM747.77 535.51L715.98 513.51Q705.22 529.63 710.83 478.05V310.74L702.01 178.69Q683.67 172.87 716.87 135.98Q710.74 150.28 748.06 114.8L744.45 126.8Q778.87 179.41 783.13 227.55Q761.99 234.84 789.74 304.42V497.33L750.46 507.7Q736.15 546.15 720.36 539.3ZM243.24 497.11Q207.44 520.71 171.3 487.05Q143.32 481.68 110.24 444.35Q77.65 440.74 107.58 439.36L88.42 402.49Q111.38 398.14 145.41 387.03Q173.03 422.27 213.39 414Q246.41 425.1 282.94 430.08Q298.85 453.71 305.1 481.05L299.59 504.92Q277.49 523.97 257.63 517.65ZM566.61 440.82V365.04H536.23Q504.64 369.1 457.91 403.07Q430.92 368.2 400.87 393.07L408.2 445.61L379.42 455.79H426.95Q440.03 440.85 501.12 429.97Q515.92 442.35 579.69 416.42ZM598.88 297.24V224.41L604.89 185.52H455.75L391.4 196.37V169.49L394.83 329.01H402.17Q435.53 311.4 498.93 313.97Q533.7 293.93 582.69 313.53ZM288.84 260.38Q257.65 253.71 239.94 267.34V254.64Q189.72 245.47 176.29 233.26V210.22L143.56 214.17Q105.71 168.06 103.82 124.86L150.16 108.86Q131.05 99.63 168.91 104.48L202.65 119.03L199.86 126.19L318.03 200.87Q324.23 239.93 308.33 229.41L294.98 273.17Q287.77 258.57 288.7 266.11Z" fill="black"></path></svg>