<?xml version="1.0" standalone="no"?>
<!DOCTYPE svg PUBLIC "-//W3C//DTD SVG 1.1//EN" "http://www.w3.org/Graphics/SVG/1.1/DTD/svg11.dtd" >
<svg xmlns="http://www.w3.org/2000/svg" xmlns:svg="http://www.w3.org/2000/svg" xmlns:xlink="http://www.w3.org/1999/xlink" viewBox="0 0 1024 1024"><path d="M301.0 962.0 281.0 952.0Q269.0 938.0 271.0 916.0L281.0 896.0Q313.0 878.0 337.0 850.0Q359.0 832.0 371.0 806.0Q383.0 772.0 395.0 737.0L413.0 729.0V725.0Q373.0 727.0 339.0 711.0Q319.0 677.0 323.0 633.0V549.0L321.0 547.0V443.0L319.0 441.0V295.0L313.0 128.0Q315.0 112.0 325.0 100.0Q339.0 88.0 361.0 90.0Q383.0 104.0 413.0 100.0L433.0 96.0H631.0L659.0 112.0L669.0 132.0V247.0L661.0 363.0V471.0L657.0 503.0V659.0L661.0 685.0Q659.0 709.0 647.0 727.0Q633.0 739.0 611.0 737.0L591.0 727.0L581.0 713.0H535.0Q507.0 715.0 479.0 717.0Q451.0 719.0 423.0 723.0V727.0Q439.0 727.0 451.0 737.0Q465.0 758.0 461.0 784.0Q451.0 832.0 423.0 874.0L411.0 888.0H407.0L401.0 900.0H397.0V904.0L391.0 910.0L385.0 916.0L377.0 924.0L365.0 930.0V934.0Q339.0 962.0 301.0 962.0ZM908.0 936.0Q876.0 924.0 842.0 914.0Q808.0 904.0 776.0 892.0Q763.0 878.0 765.0 856.0L776.0 836.0Q794.0 822.0 818.0 826.0L874.0 840.0V836.0L872.0 834.0V749.0L878.0 669.0V521.0Q874.0 439.0 870.0 356.0Q866.0 273.0 862.0 190.0L864.0 188.0V102.0Q866.0 86.0 876.0 74.0Q890.0 62.0 912.0 64.0L932.0 74.0L942.0 94.0V196.0L940.0 255.0Q948.0 317.0 949.0 383.0Q950.0 449.0 956.0 513.0V677.0L950.0 824.0L954.0 904.0L944.0 924.0Q928.0 936.0 908.0 936.0ZM691.0 922.0Q663.0 914.0 635.0 904.0Q607.0 894.0 585.0 872.0Q557.0 834.0 521.0 810.0Q509.0 796.0 511.0 774.0L521.0 753.0Q537.0 741.0 559.0 743.0L599.0 766.0V770.0H603.0L609.0 782.0H613.0L633.0 806.0L639.0 812.0V816.0H643.0V820.0L653.0 824.0V828.0Q693.0 838.0 729.0 856.0Q741.0 870.0 739.0 892.0L729.0 912.0Q713.0 924.0 691.0 922.0ZM170.0 920.0Q154.0 918.0 142.0 908.0L140.0 902.0L124.0 892.0Q104.0 868.0 80.0 854.0Q68.0 840.0 70.0 818.0L80.0 798.0Q96.0 786.0 118.0 788.0L146.0 802.0Q158.0 758.0 168.0 711.5Q178.0 665.0 204.0 625.0Q218.0 613.0 240.0 615.0L260.0 625.0Q273.0 641.0 271.0 663.0Q244.0 721.0 231.0 783.5Q218.0 846.0 202.0 906.0Q188.0 918.0 170.0 920.0ZM579.0 635.0V503.0H525.0L399.0 525.0V539.0L401.0 541.0V625.0L403.0 647.0H417.0Q455.0 639.0 496.0 637.0Q537.0 635.0 579.0 635.0ZM729.0 533.0 709.0 523.0Q699.0 511.0 697.0 495.0V293.0L691.0 172.0Q693.0 156.0 703.0 144.0Q717.0 132.0 739.0 134.0L759.0 144.0Q771.0 176.0 771.0 212.5Q771.0 249.0 776.0 285.0V503.0L765.0 523.0Q751.0 535.0 729.0 533.0ZM250.0 513.0Q210.0 505.0 173.0 489.0Q136.0 473.0 100.0 457.0Q88.0 443.0 90.0 421.0L100.0 401.0Q116.0 389.0 138.0 391.0Q174.0 403.0 209.0 417.0Q244.0 431.0 281.0 445.0Q293.0 459.0 291.0 481.0L281.0 501.0Q267.0 511.0 250.0 513.0ZM583.0 425.0V381.0H539.0Q503.0 381.0 468.0 384.0Q433.0 387.0 399.0 395.0L397.0 433.0L399.0 445.0H407.0Q449.0 437.0 492.0 430.0Q535.0 423.0 583.0 425.0ZM589.0 303.0V240.0L591.0 174.0H439.0L391.0 178.0V184.0L397.0 315.0H401.0Q445.0 307.0 493.0 305.0Q541.0 303.0 589.0 303.0ZM271.0 275.0Q242.0 267.0 220.0 249.0V245.0Q196.0 234.0 176.0 218.0V214.0L148.0 196.0Q122.0 174.0 122.0 142.0L132.0 122.0Q146.0 110.0 168.0 112.0L188.0 122.0L200.0 140.0L301.0 206.0Q313.0 220.0 311.0 242.0L301.0 263.0Q287.0 273.0 271.0 275.0Z" fill="black"></path></svg>